<svg width="217" height="40" viewBox="0 0 217 40" fill="none" xmlns="http://www.w3.org/2000/svg">
<g clip-path="url(#clip0_403_351)">
<path d="M23.1813 19.9813C23.185 20.0988 23.1518 20.2146 23.0862 20.3123L21.7452 22.3238L23.5632 21.7163C23.6746 21.6785 23.795 21.6765 23.9076 21.7107C24.0201 21.7449 24.1191 21.8135 24.1907 21.9069C24.2622 22.0002 24.3026 22.1137 24.3063 22.2313C24.31 22.3488 24.2768 22.4646 24.2112 22.5623L22.8702 24.5738L24.6882 23.9663L25.046 25.0328L21.671 26.1578C21.5597 26.1949 21.4397 26.1963 21.3276 26.1618C21.2155 26.1273 21.117 26.0587 21.0459 25.9655C20.9747 25.8723 20.9345 25.7591 20.9308 25.6419C20.9271 25.5247 20.9601 25.4093 21.0252 25.3118L22.364 23.3003L20.546 23.9078C20.4347 23.9449 20.3147 23.9463 20.2026 23.9118C20.0905 23.8773 19.992 23.8087 19.9209 23.7155C19.8497 23.6223 19.8095 23.5091 19.8058 23.3919C19.8021 23.2747 19.8351 23.1593 19.9002 23.0618L21.239 21.0503L19.421 21.6578L19.0632 20.5913L22.4382 19.4663C22.5496 19.4285 22.67 19.4265 22.7826 19.4607C22.8951 19.4949 22.9941 19.5635 23.0657 19.6569C23.1372 19.7502 23.1776 19.8637 23.1813 19.9813Z" fill="#2891A4"/>
<path fill-rule="evenodd" clip-rule="evenodd" d="M38.7279 32.7279C35.3523 36.1036 30.7739 38 26 38C21.2261 38 16.6477 36.1036 13.2721 32.7279C9.89642 29.3523 8 24.7739 8 20C8 15.2261 9.89642 10.6477 13.2721 7.27208C16.6477 3.89642 21.2261 2 26 2C30.7739 2 35.3523 3.89642 38.7279 7.27208C42.1036 10.6477 44 15.2261 44 20C44 24.7739 42.1036 29.3523 38.7279 32.7279ZM16.5185 23.582L12.0455 27.3102C13.5346 30.1438 15.8482 32.459 18.6808 33.95L22.4113 29.4725C23.5559 29.9051 24.7696 30.1262 25.9932 30.125C27.4625 30.125 28.8575 29.8123 30.1175 29.2475L27.1182 22.25L24.8682 16.625L33.4767 13.1803C31.8908 11.4361 29.7458 10.3 27.4119 9.9679C25.078 9.63582 22.7013 10.1286 20.6918 11.3612C18.6822 12.5938 17.1658 14.489 16.4039 16.7199C15.6421 18.9509 15.6826 21.3777 16.5185 23.582ZM35.1103 24.4064C35.7739 23.0323 36.1178 21.5259 36.116 20C36.116 19.5343 36.0868 19.0775 36.026 18.6275L29.3682 21.125L32.2843 27.9335C33.4805 26.9862 34.4467 25.7804 35.1103 24.4064Z" fill="#2891A4"/>
</g>
<path d="M70.51 29H64.42L63.88 25.79L63.85 25.7L60.91 25.64L58.45 25.76L57.94 29H52.06L57.94 9.59H65.2L70.51 29ZM62.95 21.32L61.63 14.96H61.27L59.59 21.32L61.27 21.35L62.95 21.32ZM78.3986 22.7L78.6386 29H72.6086L72.9086 23.3L72.6086 9.59H78.7286L78.3986 22.7ZM95.203 21.35C96.643 23.59 98.083 25.67 99.523 27.59L99.433 28.25C97.393 28.87 95.383 29.24 93.403 29.36L92.833 28.88L92.473 28.13C92.313 27.81 91.993 27.14 91.513 26.12C91.033 25.08 90.613 24.11 90.253 23.21H88.243L88.453 29H82.423L82.723 23.3L82.423 9.59L91.633 9.56C93.813 9.56 95.493 10.08 96.673 11.12C97.853 12.14 98.443 13.62 98.443 15.56C98.443 16.7 98.153 17.77 97.573 18.77C97.013 19.77 96.223 20.63 95.203 21.35ZM92.113 16.16C92.113 15.36 91.903 14.77 91.483 14.39C91.083 13.99 90.423 13.77 89.503 13.73L88.423 13.82L88.303 18.83L90.493 18.95C91.053 18.69 91.463 18.34 91.723 17.9C91.983 17.46 92.113 16.88 92.113 16.16ZM122.769 29H117.489L117.339 23.12L117.009 18.23H116.649L113.529 27.17H108.999L106.419 18.23H106.059L105.639 22.55L105.339 29H100.329L102.219 9.59H109.149L109.719 12.35L111.429 19.4H111.789L113.679 12.56L114.369 9.59H121.209L122.769 29ZM142.229 29H136.139L135.599 25.79L135.569 25.7L132.629 25.64L130.169 25.76L129.659 29H123.779L129.659 9.59H136.919L142.229 29ZM134.669 21.32L133.349 14.96H132.989L131.309 21.32L132.989 21.35L134.669 21.32ZM151.677 9.23C153.577 9.23 155.457 9.58 157.317 10.28L156.357 15.17L155.517 15.53C154.677 15.01 153.847 14.6 153.027 14.3C152.207 14 151.547 13.85 151.047 13.85C150.587 13.85 150.217 13.94 149.937 14.12C149.677 14.3 149.547 14.54 149.547 14.84C149.547 15.22 149.747 15.55 150.147 15.83C150.567 16.09 151.257 16.44 152.217 16.88C153.337 17.38 154.257 17.85 154.977 18.29C155.697 18.71 156.327 19.3 156.867 20.06C157.407 20.8 157.677 21.72 157.677 22.82C157.677 24.04 157.337 25.15 156.657 26.15C155.997 27.13 155.047 27.91 153.807 28.49C152.567 29.07 151.127 29.36 149.487 29.36C147.447 29.36 145.307 28.98 143.067 28.22L143.937 23L144.537 22.64C145.457 23.34 146.437 23.9 147.477 24.32C148.537 24.72 149.417 24.92 150.117 24.92C150.677 24.92 151.077 24.83 151.317 24.65C151.577 24.45 151.707 24.21 151.707 23.93C151.707 23.51 151.487 23.16 151.047 22.88C150.627 22.58 149.937 22.22 148.977 21.8C147.877 21.32 146.967 20.87 146.247 20.45C145.547 20.01 144.937 19.42 144.417 18.68C143.897 17.92 143.637 16.99 143.637 15.89C143.637 14.63 143.977 13.5 144.657 12.5C145.337 11.48 146.287 10.68 147.507 10.1C148.727 9.52 150.117 9.23 151.677 9.23ZM173.474 10.01L173.144 14.39L169.184 14.21H168.824L168.674 22.7L168.914 29H162.914L163.214 23.3L163.064 14.21H162.674L158.684 14.39L158.324 13.97L158.654 9.59H173.144L173.474 10.01ZM188.887 24.2L189.217 24.62L188.857 29H175.177L175.477 23.3L175.177 9.59H189.097L189.427 10.01L189.037 14.39L184.267 14.21H181.177L181.117 16.94H184.087L187.207 16.85L187.537 17.27L187.177 21.65L183.697 21.56H180.997L180.967 22.7L181.027 24.38H183.907L188.887 24.2ZM204.187 21.35C205.627 23.59 207.067 25.67 208.507 27.59L208.417 28.25C206.377 28.87 204.367 29.24 202.387 29.36L201.817 28.88L201.457 28.13C201.297 27.81 200.977 27.14 200.497 26.12C200.017 25.08 199.597 24.11 199.237 23.21H197.227L197.437 29H191.407L191.707 23.3L191.407 9.59L200.617 9.56C202.797 9.56 204.477 10.08 205.657 11.12C206.837 12.14 207.427 13.62 207.427 15.56C207.427 16.7 207.137 17.77 206.557 18.77C205.997 19.77 205.207 20.63 204.187 21.35ZM201.097 16.16C201.097 15.36 200.887 14.77 200.467 14.39C200.067 13.99 199.407 13.77 198.487 13.73L197.407 13.82L197.287 18.83L199.477 18.95C200.037 18.69 200.447 18.34 200.707 17.9C200.967 17.46 201.097 16.88 201.097 16.16Z" fill="#2891A4"/>
<defs>
<clipPath id="clip0_403_351">
<rect width="36" height="36" fill="white" transform="translate(8 2)"/>
</clipPath>
</defs>
</svg>
