<svg xmlns="http://www.w3.org/2000/svg" xmlns:xlink="http://www.w3.org/1999/xlink" id="Layer_1" x="0" y="0" viewBox="0 0 255.6 101" style="enable-background:new 0 0 255.6 101" xml:space="preserve" width="240"><style>.st0{fill:currentColor}</style><path class="st0" d="M122.7 6133.5h11.9l3.5-7.4 22.2-46.6h-12.5l-12.9 27.9-12.9-27.9h-12.5l19.5 40.7-6.3 13.3z" transform="matrix(.85349 0 0 .85349 64.536 -5133.89)"></path><path class="st0" d="M-2.1 6060.5H9.1v71.6H-2.1z" transform="matrix(.85349 0 0 .85349 84.907 -5133.89)"></path><path class="st0" d="M61.6 6075.4c-8 0-14.8 2.8-20.5 8.5-5.7 5.7-8.5 12.5-8.5 20.5s2.8 14.8 8.5 20.5c5.7 5.7 12.5 8.5 20.5 8.5s14.9-2.8 20.5-8.5c5.7-5.7 8.5-12.5 8.5-20.5s-2.8-14.9-8.5-20.5c-5.6-5.7-12.5-8.5-20.5-8.5zm0 11.4c4.9 0 9 1.7 12.4 5.2 3.4 3.4 5.2 7.6 5.2 12.4 0 4.9-1.7 9-5.1 12.4-3.4 3.4-7.6 5.1-12.4 5.1-4.9 0-9-1.7-12.4-5.1-3.4-3.4-5.1-7.6-5.1-12.4 0-4.9 1.7-9 5.2-12.4 3.2-3.4 7.4-5.2 12.2-5.2z" transform="matrix(.85349 0 0 .85349 75.338 -5133.89)"></path><path class="st0" d="M241.3 6060.5h-11.2v20.5c-5-3.7-10.7-5.6-17.2-5.6-8 0-14.8 2.8-20.5 8.5-5.7 5.7-8.5 12.5-8.5 20.5s2.8 14.8 8.5 20.5c5.7 5.7 12.5 8.5 20.5 8.5 6.5 0 12.3-1.9 17.2-5.6l2.2 5h8.9v-72.3zm-11.2 47.9c-.8 3.1-2.3 5.9-4.8 8.4-3.4 3.4-7.6 5.2-12.4 5.2-4.9 0-9-1.7-12.4-5.1-3.4-3.4-5.1-7.6-5.1-12.4 0-4.9 1.7-9 5.2-12.4 3.4-3.4 7.6-5.2 12.4-5.2 4.9 0 9 1.7 12.4 5.2 2.5 2.5 4.1 5.9 4.8 8.6.6 2.5.5 6.1.1 7.4l-.2.3z" transform="matrix(.85349 0 0 .85349 49.643 -5133.89)"></path><defs><path id="XMLID_1_" d="M59.2 46.5c4.6-4.1 7.9-9.9 7.9-18.5 0-8.1-2.9-15.2-8.6-20.2C53.1 3 45 0 33.9 0H.6v35.6L8.2 47l-1.4 2.1-4.3 6.7-1.9 2.9V101h33.1c13.7 0 24.1-4.1 30.3-11.3 4.3-5 6.8-11.6 6.8-19.6 0-12.1-5.4-19.4-11.6-23.6zM10.3 9.7h23.6c8.2 0 14.3 1.9 18.3 5.4 3.6 3.2 5.3 7.7 5.3 12.9 0 6.6-5.8 11.9-7.4 13.2L10.3 29.5V9.7zM16 41.3l19.7 5.8L16 52.9l3.8-5.8-3.8-5.8zm40.7 42c-4.7 5.4-12.7 8-22.9 8H10.3V64.7l40.3-12c2 1.3 10.5 7.5 10.5 17.3 0 5.5-1.5 9.9-4.4 13.3z"></path></defs><use xlink:href="#XMLID_1_" style="overflow:visible;fill:currentColor"></use><clipPath id="XMLID_3_"><use xlink:href="#XMLID_1_" style="overflow:visible"></use></clipPath><linearGradient id="SVGID_1_" gradientUnits="userSpaceOnUse" x1="0" y1="47.1" x2="72.071" y2="47.1"><stop offset="0.003" style="stop-color:#acbffd"></stop><stop offset="0.039" style="stop-color:#9bb1fd"></stop><stop offset="0.164" style="stop-color:#6485fe"></stop><stop offset="0.281" style="stop-color:#3962fe"></stop><stop offset="0.385" style="stop-color:#1a49ff"></stop><stop offset="0.473" style="stop-color:#0739ff"></stop><stop offset="0.534" style="stop-color:#0034ff"></stop><stop offset="1" style="stop-color:#02358a"></stop></linearGradient><path d="M0 58.8v8.9l62.6-18.6 9.5-2.6-10.8-2.2L49.9 41l-1.5-.4L0 26.4v9.1" style="clip-path:url(#XMLID_3_);fill:url(#SVGID_1_)"></path></svg>