<svg width="194" height="32" viewBox="0 0 194 32" fill="none" xmlns="http://www.w3.org/2000/svg">
<g clip-path="url(#clip0_1110_45)">
<path d="M30.6667 0H24V6.6622H30.6667V0Z" fill="#15803D"/>
<path d="M30.6667 8H24V14.6622H30.6667V8Z" fill="#15803D"/>
<path d="M22.6667 8H16V14.6622H22.6667V8Z" fill="#16A34A"/>
<path d="M30.6667 16H24V22.6622H30.6667V16Z" fill="#15803D"/>
<path d="M22.6667 16H16V22.6622H22.6667V16Z" fill="#16A34A"/>
<path d="M14.6667 16H8V22.6622H14.6667V16Z" fill="#22C55E"/>
<path d="M30.6667 24H24V30.6622H30.6667V24Z" fill="#15803D"/>
<path d="M22.6667 24H16V30.6622H22.6667V24Z" fill="#16A34A"/>
<path d="M14.6667 24H8V30.6622H14.6667V24Z" fill="#22C55E"/>
<path d="M6.66667 24H0V30.6622H6.66667V24Z" fill="#4ADE80"/>
<path d="M41.8137 16.5034H40.0842L39.8315 14.0029H32V7.98404e-05H34.4486V11.6824H37.9465V7.98404e-05H40.3951V11.6824H41.8137V16.5034ZM42.1727 7.98404e-05H48.9743V2.32054H44.6213V5.76122H48.5662V8.08169H44.6213V11.6824H49.052V14.0029H42.1727V7.98404e-05ZM55.9059 8.08169H52.1942V14.0029H49.7456V7.98404e-05H52.1942V5.76122H55.9059V7.98404e-05H58.3545V14.0029H55.9059V8.08169ZM67.5114 2.32054H64.2855V14.0029H61.8369V2.32054H58.611V7.98404e-05H67.5114V2.32054ZM67.7569 0.140108C68.2233 0.0334198 68.735 -0.0465961 69.2921 -0.09994C69.8491 -0.16662 70.4062 -0.19996 70.9633 -0.19996C71.5593 -0.19996 72.1423 -0.139948 72.7123 -0.0199241C73.2953 0.0867637 73.8135 0.306807 74.2669 0.640207C74.7204 0.973606 75.0896 1.44703 75.3746 2.06049C75.6596 2.66061 75.8021 3.44743 75.8021 4.42096C75.8021 5.30113 75.6791 6.04795 75.4329 6.6614C75.1997 7.27486 74.8823 7.77496 74.4807 8.1617C74.0791 8.54844 73.6127 8.8285 73.0815 9.00187C72.5633 9.17524 72.0257 9.26192 71.4686 9.26192C71.4168 9.26192 71.3325 9.26192 71.2159 9.26192C71.0993 9.26192 70.9763 9.26192 70.8467 9.26192C70.7172 9.24858 70.5876 9.23525 70.4581 9.22191C70.3415 9.20858 70.2572 9.19524 70.2054 9.1819V14.0029H67.7569V0.140108ZM70.2054 6.92145C70.2832 6.94813 70.4257 6.9748 70.633 7.00147C70.8532 7.01481 71.0022 7.02147 71.0799 7.02147C71.3649 7.02147 71.637 6.98147 71.8961 6.90145C72.1552 6.82143 72.3819 6.68807 72.5763 6.50137C72.7835 6.30133 72.9455 6.03461 73.0621 5.70121C73.1787 5.35448 73.237 4.92106 73.237 4.40095C73.237 3.96087 73.1787 3.58746 73.0621 3.28073C72.9584 2.974 72.8095 2.73396 72.6151 2.56059C72.4338 2.37388 72.22 2.24052 71.9738 2.16051C71.7277 2.08049 71.4686 2.04048 71.1965 2.04048C70.7949 2.04048 70.4645 2.07382 70.2054 2.1405V6.92145ZM82.9869 12.4826C82.7797 12.5226 82.5659 12.5492 82.3456 12.5626C82.1384 12.5759 81.9052 12.5826 81.6461 12.5826C81.1278 12.5826 80.6485 12.4759 80.208 12.2625C79.7805 12.0491 79.4048 11.7157 79.0809 11.2623C78.77 10.8089 78.5238 10.2354 78.3424 9.54198C78.1611 8.83517 78.0704 7.98833 78.0704 7.00147C78.0704 5.13443 78.4202 3.70081 79.1198 2.70062C79.8194 1.70042 80.7651 1.20032 81.957 1.20032C82.0865 1.20032 82.255 1.20699 82.4623 1.22032C82.6825 1.23366 82.8574 1.26033 82.9869 1.30034V-0.4H85.4355V1.36035C85.6298 1.29367 85.863 1.25366 86.1351 1.24033C86.4072 1.21365 86.6274 1.20032 86.7958 1.20032C87.314 1.20032 87.7869 1.31367 88.2144 1.54039C88.6549 1.7671 89.0306 2.11383 89.3416 2.58059C89.6654 3.03402 89.9116 3.61413 90.08 4.32094C90.2614 5.02775 90.3521 5.85458 90.3521 6.80143C90.3521 7.77496 90.2484 8.62179 90.0411 9.34194C89.8468 10.0621 89.5812 10.6622 89.2444 11.1423C88.9076 11.6224 88.5059 11.9825 88.0395 12.2225C87.5731 12.4626 87.0809 12.5826 86.5626 12.5826C86.3683 12.5826 86.1675 12.5759 85.9602 12.5626C85.7659 12.5359 85.591 12.4959 85.4355 12.4426V14.4029H82.9869V12.4826ZM86.174 3.38075C86.0703 3.38075 85.9278 3.38742 85.7464 3.40076C85.5651 3.41409 85.4226 3.44076 85.3189 3.48077V10.3621C85.3966 10.3888 85.5003 10.4021 85.6298 10.4021C85.7594 10.4021 85.889 10.4021 86.0185 10.4021C86.5756 10.4021 87.029 10.1221 87.3788 9.56198C87.7286 8.98853 87.9035 8.07502 87.9035 6.82143C87.9035 5.74122 87.7545 4.90105 87.4566 4.30093C87.1715 3.68748 86.744 3.38075 86.174 3.38075ZM82.3068 10.4021C82.3975 10.4021 82.5206 10.4021 82.676 10.4021C82.8444 10.3888 82.9869 10.3621 83.1035 10.3221V3.42076C82.9999 3.40742 82.8833 3.40076 82.7537 3.40076C82.6242 3.38742 82.5011 3.38075 82.3845 3.38075C81.8274 3.38075 81.374 3.66748 81.0242 4.24092C80.6874 4.80103 80.5189 5.71455 80.5189 6.98147C80.5189 8.08835 80.6744 8.93519 80.9853 9.52197C81.2963 10.1088 81.7367 10.4021 82.3068 10.4021ZM97.2493 6.54138L97.4436 4.56099H97.3464L96.608 6.68141L92.7408 14.0029H90.8169V7.98404e-05H93.2655V7.32153L93.0517 9.36194H93.1489L93.9262 7.18151L97.7934 7.98404e-05H99.6978V14.0029H97.2493V6.54138ZM106.827 8.08169H103.116V14.0029H100.667V7.98404e-05H103.116V5.76122H106.827V7.98404e-05H109.276V14.0029H106.827V8.08169ZM115.751 10.8422H112.545L111.748 14.0029H109.319L113.264 -0.09994H115.188L119.152 14.0029H116.587L115.751 10.8422ZM113.069 8.76182H115.324L114.546 5.50117L114.235 3.30074H114.158L113.827 5.52118L113.069 8.76182ZM125.37 8.08169H121.658V14.0029H119.21V7.98404e-05H121.658V5.76122H125.37V7.98404e-05H127.819V14.0029H125.37V8.08169ZM136.508 13.4427C136.172 13.7361 135.718 13.9495 135.148 14.0829C134.591 14.2162 134.034 14.2829 133.477 14.2829C132.777 14.2829 132.123 14.1629 131.514 13.9228C130.918 13.6695 130.394 13.256 129.94 12.6826C129.487 12.1092 129.13 11.3557 128.872 10.4221C128.613 9.48863 128.483 8.34174 128.483 6.98147C128.483 5.56785 128.626 4.39429 128.911 3.46077C129.208 2.52725 129.447 2.07002 129.913 1.52325C130.392 0.963137 130.936 0.569725 131.545 0.343014C132.154 0.116302 132.77 0.00294599 133.391 0.00294599C134.026 0.00294599 134.577 0.05629 135.043 0.162978C135.523 0.269666 135.911 0.38969 136.209 0.523049L135.723 2.74349C135.477 2.61013 135.186 2.51011 134.849 2.44343C134.525 2.36342 134.136 2.32341 133.683 2.32341C132.789 2.32341 132.246 2.44056 131.767 3.24072C131.287 4.04088 131.048 5.29447 131.048 7.00147C131.048 7.73495 131.1 8.40842 131.203 9.02187C131.32 9.62199 131.495 10.1421 131.728 10.5822C131.974 11.0223 132.279 11.3623 132.641 11.6024C133.017 11.8424 133.464 11.9625 133.982 11.9625C134.436 11.9625 134.824 11.9024 135.148 11.7824C135.472 11.6491 135.764 11.4957 136.023 11.3223L136.508 13.4427ZM136.037 7.00147C136.037 4.62767 136.393 3.10356 137.183 1.86332C137.974 0.623069 139.179 0.00294602 140.798 0.00294602C141.64 0.00294602 142.366 0.176314 142.975 0.523049C143.583 0.856449 144.082 1.34321 144.471 1.98334C144.859 2.61013 145.183 3.09403 145.365 4.00087C145.559 4.89439 145.656 5.89458 145.656 7.00147C145.656 9.37528 145.248 11.1823 144.432 12.4225C143.629 13.6628 142.43 14.2829 140.837 14.2829C139.982 14.2829 139.25 14.1162 138.641 13.7828C138.045 13.4361 137.553 12.9493 137.164 12.3225C136.775 11.6824 136.49 10.9156 136.309 10.0221C136.128 9.11522 136.037 8.10836 136.037 7.00147ZM138.602 7.00147C138.602 7.70828 138.641 8.36841 138.719 8.98186C138.796 9.58198 138.926 10.1021 139.107 10.5422C139.289 10.9823 139.515 11.329 139.787 11.5824C140.073 11.8358 140.422 11.9625 140.837 11.9625C141.588 11.9625 142.152 11.569 142.528 10.7822C142.903 9.9954 143.091 8.73515 143.091 7.00147C143.091 6.32134 143.052 5.68121 142.975 5.08109C142.897 4.46763 142.767 3.94086 142.586 3.50078C142.417 3.04735 142.191 2.69395 141.906 2.44056C141.621 2.17384 141.264 2.04048 140.837 2.04048C139.347 2.04048 138.602 3.69415 138.602 7.00147ZM154.085 3.24072C154.085 3.58746 154.046 3.93419 153.968 4.28093C153.904 4.61433 153.794 4.93439 153.638 5.24112C153.483 5.53451 153.275 5.79456 153.016 6.02128C152.77 6.24799 152.472 6.42136 152.122 6.54138V6.6614C152.433 6.74142 152.725 6.86144 152.997 7.02147C153.282 7.18151 153.528 7.40155 153.735 7.68161C153.943 7.94833 154.104 8.28172 154.221 8.6818C154.351 9.06855 154.415 9.52864 154.415 10.0621C154.415 10.7822 154.292 11.409 154.046 11.9425C153.813 12.4626 153.489 12.8893 153.075 13.2227C152.673 13.5561 152.2 13.8028 151.656 13.9629C151.112 14.1229 150.535 14.2029 149.926 14.2029C149.745 14.2029 149.512 14.2029 149.227 14.2029C148.942 14.2029 148.631 14.1896 148.294 14.1629C147.97 14.1496 147.633 14.1229 147.283 14.0829C146.934 14.0429 146.61 13.9829 146.312 13.9028L146.351 0.303006C146.778 0.22299 147.303 0.15631 147.925 0.102966C148.56 0.036286 149.188 0.00294602 149.81 0.00294602C150.38 0.00294602 150.924 0.049622 151.442 0.142974C151.973 0.236326 152.433 0.409694 152.822 0.663077C153.224 0.916461 153.502 1.06696 153.735 1.52038C153.968 1.96047 154.085 2.53392 154.085 3.24072ZM149.985 12.0225C150.529 12.0225 150.976 11.8424 151.326 11.4824C151.675 11.1223 151.85 10.5955 151.85 9.90205C151.85 9.46196 151.792 9.11522 151.675 8.86184C151.559 8.59512 151.403 8.39508 151.209 8.26172C151.015 8.11502 150.788 8.02167 150.529 7.98166C150.283 7.94166 150.024 7.92165 149.751 7.92165H148.76V11.9024C148.864 11.9425 149.039 11.9758 149.285 12.0025C149.544 12.0158 149.777 12.0225 149.985 12.0225ZM149.324 5.94126C149.466 5.94126 149.628 5.93459 149.81 5.92126C150.004 5.89458 150.16 5.86791 150.276 5.84124C150.652 5.69454 150.969 5.4545 151.228 5.1211C151.5 4.7877 151.636 4.35428 151.636 3.82084C151.636 3.4741 151.591 3.18071 151.5 2.94066C151.41 2.70062 151.287 2.51391 151.131 2.38055C150.976 2.23386 150.788 2.13384 150.568 2.08049C150.36 2.01381 150.134 1.98047 149.887 1.98047C149.356 1.98047 148.981 2.00715 148.76 2.06049V5.94126H149.324ZM154.751 7.00147C154.751 4.62767 155.146 3.10356 155.936 1.86332C156.727 0.623069 157.932 0.00294599 159.551 0.00294599C160.393 0.00294599 161.119 0.176314 161.727 0.523049C162.336 0.869785 162.883 1.33693 163.272 1.97706C163.66 2.60385 163.897 3.09403 164.079 4.00087C164.273 4.89439 164.37 5.89458 164.37 7.00147C164.37 9.37528 163.962 11.1823 163.146 12.4225C162.343 13.6628 161.144 14.2829 159.551 14.2829C158.696 14.2829 157.964 14.1162 157.355 13.7828C156.759 13.4361 156.267 12.9493 155.878 12.3225C155.489 11.6824 155.204 10.9156 155.023 10.0221C154.842 9.11522 154.751 8.10836 154.751 7.00147ZM157.316 7.00147C157.316 7.70828 157.355 8.36841 157.433 8.98186C157.51 9.58198 157.64 10.1021 157.821 10.5422C158.003 10.9823 158.229 11.329 158.502 11.5824C158.787 11.8358 159.136 11.9625 159.551 11.9625C160.302 11.9625 160.866 11.569 161.242 10.7822C161.617 9.9954 161.805 8.73515 161.805 7.00147C161.805 6.32134 161.766 5.68121 161.689 5.08109C161.611 4.46763 161.481 3.94086 161.3 3.50078C161.131 3.04735 160.905 2.69395 160.62 2.44056C160.335 2.17384 159.978 2.04048 159.551 2.04048C158.061 2.04048 157.316 3.69415 157.316 7.00147ZM165.026 7.12149H169.068V9.40195H165.026V7.12149ZM37.9854 18.9905H34.4486V30.6728H32V16.6701H40.434V30.6728H37.9854V18.9905ZM41.4136 16.8101C41.88 16.7034 42.3918 16.6234 42.9489 16.57C43.5059 16.5034 44.063 16.47 44.6201 16.47C45.216 16.47 45.799 16.53 46.3691 16.6501C46.9521 16.7567 47.4703 16.9768 47.9237 17.3102C48.3772 17.6436 48.7464 18.117 49.0314 18.7305C49.3164 19.3306 49.4589 20.1174 49.4589 21.0909C49.4589 21.9711 49.3359 22.7179 49.0897 23.3314C48.8565 23.9448 48.5391 24.4449 48.1375 24.8317C47.7359 25.2184 47.2695 25.4985 46.7383 25.6718C46.2201 25.8452 45.6824 25.9319 45.1254 25.9319C45.0735 25.9319 44.9893 25.9319 44.8727 25.9319C44.7561 25.9319 44.6331 25.9319 44.5035 25.9319C44.3739 25.9186 44.2444 25.9052 44.1148 25.8919C43.9982 25.8786 43.914 25.8652 43.8622 25.8519V30.6728H41.4136V16.8101ZM43.8622 23.5914C43.9399 23.6181 44.0824 23.6448 44.2897 23.6714C44.51 23.6848 44.659 23.6915 44.7367 23.6915C45.0217 23.6915 45.2938 23.6514 45.5529 23.5714C45.812 23.4914 46.0387 23.3581 46.233 23.1713C46.4403 22.9713 46.6023 22.7046 46.7189 22.3712C46.8355 22.0245 46.8938 21.591 46.8938 21.0709C46.8938 20.6308 46.8355 20.2574 46.7189 19.9507C46.6152 19.644 46.4662 19.4039 46.2719 19.2306C46.0905 19.0439 45.8768 18.9105 45.6306 18.8305C45.3845 18.7505 45.1254 18.7105 44.8533 18.7105C44.4517 18.7105 44.1213 18.7438 43.8622 18.8105V23.5914ZM54.1255 27.5122H50.919L50.1222 30.6728H47.6931L51.638 16.57H53.5619L57.5263 30.6728H54.9611L54.1255 27.5122ZM51.4437 25.4318H53.6979L52.9206 22.1712L52.6097 19.9707H52.5319L52.2016 22.1912L51.4437 25.4318ZM65.3574 19.9107C65.3574 20.2574 65.3185 20.6042 65.2408 20.9509C65.176 21.2843 65.0659 21.6044 64.9104 21.9111C64.755 22.2045 64.5477 22.4645 64.2886 22.6913C64.0424 22.918 63.7444 23.0913 63.3947 23.2114V23.3314C63.7056 23.4114 63.9971 23.5314 64.2691 23.6915C64.5542 23.8515 64.8003 24.0715 65.0076 24.3516C65.2149 24.6183 65.3768 24.9517 65.4934 25.3518C65.623 25.7385 65.6878 26.1986 65.6878 26.7321C65.6878 27.4522 65.5647 28.079 65.3185 28.6124C65.0853 29.1325 64.7614 29.5593 64.3469 29.8927C63.9453 30.2261 63.4724 30.4728 62.9283 30.6328C62.3841 30.7929 61.8076 30.8729 61.1987 30.8729C61.0173 30.8729 60.7841 30.8729 60.4991 30.8729C60.2141 30.8729 59.9032 30.8595 59.5663 30.8329C59.2424 30.8195 58.9056 30.7929 58.5558 30.7529C58.206 30.7128 57.8821 30.6528 57.5842 30.5728V16.7701C58.0117 16.6901 58.5364 16.6234 59.1582 16.57C59.7931 16.5034 60.4214 16.47 61.0432 16.47C61.6133 16.47 62.1574 16.5167 62.6756 16.61C63.2068 16.7034 63.6667 16.8768 64.0554 17.1301C64.457 17.3835 64.7744 17.7369 65.0076 18.1904C65.2408 18.6304 65.3574 19.2039 65.3574 19.9107ZM61.257 28.6924C61.8011 28.6924 62.2481 28.5124 62.5979 28.1523C62.9477 27.7923 63.1226 27.2655 63.1226 26.572C63.1226 26.1319 63.0643 25.7852 62.9477 25.5318C62.8311 25.2651 62.6756 25.0651 62.4813 24.9317C62.287 24.785 62.0602 24.6917 61.8011 24.6516C61.555 24.6116 61.2959 24.5916 61.0238 24.5916H60.0327V28.5724C60.1364 28.6124 60.3113 28.6458 60.5574 28.6724C60.8165 28.6858 61.0497 28.6924 61.257 28.6924ZM60.5963 22.6112C60.7388 22.6112 60.9007 22.6046 61.0821 22.5912C61.2764 22.5646 61.4319 22.5379 61.5485 22.5112C61.9242 22.3645 62.2416 22.1245 62.5007 21.7911C62.7728 21.4577 62.9088 21.0243 62.9088 20.4908C62.9088 20.1441 62.8635 19.8507 62.7728 19.6106C62.6821 19.3706 62.559 19.1839 62.4036 19.0505C62.2481 18.9038 62.0602 18.8038 61.84 18.7505C61.6327 18.6838 61.406 18.6505 61.1598 18.6505C60.6287 18.6505 60.253 18.6771 60.0327 18.7305V22.6112H60.5963ZM66.0227 23.6714C66.0227 21.2976 66.4178 19.4906 67.2081 18.2504C67.9983 17.0101 69.2032 16.39 70.8226 16.39C71.6647 16.39 72.3902 16.5634 72.9991 16.9101C73.608 17.2435 74.1068 17.7303 74.4955 18.3704C74.8841 18.9972 75.1691 19.764 75.3505 20.6709C75.5449 21.5644 75.642 22.5646 75.642 23.6714C75.642 26.0453 75.2339 27.8523 74.4177 29.0925C73.6145 30.3328 72.4161 30.9529 70.8226 30.9529C69.9676 30.9529 69.2356 30.7862 68.6267 30.4528C68.0307 30.1061 67.5384 29.6193 67.1498 28.9925C66.7611 28.3524 66.4761 27.5856 66.2947 26.692C66.1133 25.7852 66.0227 24.7783 66.0227 23.6714ZM68.5878 23.6714C68.5878 24.3783 68.6267 25.0384 68.7044 25.6518C68.7822 26.252 68.9117 26.7721 69.0931 27.2122C69.2745 27.6522 69.5012 27.999 69.7732 28.2524C70.0583 28.5057 70.408 28.6324 70.8226 28.6324C71.574 28.6324 72.1376 28.239 72.5133 27.4522C72.889 26.6654 73.0769 25.4051 73.0769 23.6714C73.0769 22.9913 73.038 22.3512 72.9603 21.7511C72.8825 21.1376 72.753 20.6108 72.5716 20.1708C72.4032 19.7173 72.1765 19.3639 71.8914 19.1105C71.6064 18.8438 71.2501 18.7105 70.8226 18.7105C69.3328 18.7105 68.5878 20.3641 68.5878 23.6714ZM84.0708 19.9107C84.0708 20.2574 84.0319 20.6042 83.9542 20.9509C83.8894 21.2843 83.7793 21.6044 83.6238 21.9111C83.4684 22.2045 83.2611 22.4645 83.002 22.6913C82.7558 22.918 82.4578 23.0913 82.1081 23.2114V23.3314C82.419 23.4114 82.7105 23.5314 82.9825 23.6915C83.2676 23.8515 83.5137 24.0715 83.721 24.3516C83.9283 24.6183 84.0902 24.9517 84.2068 25.3518C84.3364 25.7385 84.4012 26.1986 84.4012 26.7321C84.4012 27.4522 84.2781 28.079 84.0319 28.6124C83.7987 29.1325 83.4748 29.5593 83.0603 29.8927C82.6587 30.2261 82.1858 30.4728 81.6417 30.6328C81.0975 30.7929 80.521 30.8729 79.9121 30.8729C79.7307 30.8729 79.4975 30.8729 79.2125 30.8729C78.9275 30.8729 78.6166 30.8595 78.2797 30.8329C77.9558 30.8195 77.619 30.7929 77.2692 30.7529C76.9194 30.7128 76.5955 30.6528 76.2976 30.5728V16.7701C76.7251 16.6901 77.2498 16.6234 77.8716 16.57C78.5065 16.5034 79.1348 16.47 79.7566 16.47C80.3267 16.47 80.8708 16.5167 81.389 16.61C81.9202 16.7034 82.3801 16.8768 82.7688 17.1301C83.1704 17.3835 83.4878 17.7369 83.721 18.1904C83.9542 18.6304 84.0708 19.2039 84.0708 19.9107ZM79.9704 28.6924C80.5145 28.6924 80.9615 28.5124 81.3113 28.1523C81.6611 27.7923 81.836 27.2655 81.836 26.572C81.836 26.1319 81.7777 25.7852 81.6611 25.5318C81.5445 25.2651 81.389 25.0651 81.1947 24.9317C81.0004 24.785 80.7736 24.6917 80.5145 24.6516C80.2684 24.6116 80.0093 24.5916 79.7372 24.5916H78.7461V28.5724C78.8498 28.6124 79.0247 28.6458 79.2708 28.6724C79.5299 28.6858 79.7631 28.6924 79.9704 28.6924ZM79.3097 22.6112C79.4522 22.6112 79.6141 22.6046 79.7955 22.5912C79.9898 22.5646 80.1453 22.5379 80.2619 22.5112C80.6376 22.3645 80.955 22.1245 81.2141 21.7911C81.4862 21.4577 81.6222 21.0243 81.6222 20.4908C81.6222 20.1441 81.5769 19.8507 81.4862 19.6106C81.3955 19.3706 81.2724 19.1839 81.117 19.0505C80.9615 18.9038 80.7736 18.8038 80.5534 18.7505C80.3461 18.6838 80.1194 18.6505 79.8732 18.6505C79.3421 18.6505 78.9664 18.6771 78.7461 18.7305V22.6112H79.3097ZM93.8307 16.6701H96.2793V30.6728H93.8307V16.6701ZM85.047 16.6701H87.4956V21.6911C87.6121 21.6644 87.8065 21.631 88.0785 21.591C88.3506 21.551 88.6162 21.531 88.8753 21.531C89.4194 21.531 89.9247 21.5977 90.3911 21.7311C90.8704 21.8511 91.285 22.0778 91.6348 22.4112C91.9846 22.7446 92.2631 23.2047 92.4704 23.7915C92.6777 24.3649 92.7813 25.0984 92.7813 25.9919C92.7813 27.6322 92.4186 28.8591 91.6931 29.6726C90.9676 30.4728 89.8016 30.8729 88.1951 30.8729C88.0397 30.8729 87.8389 30.8662 87.5927 30.8529C87.3466 30.8529 87.0745 30.8395 86.7765 30.8129C86.4915 30.7995 86.1935 30.7662 85.8826 30.7128C85.5846 30.6728 85.3061 30.6195 85.047 30.5528V16.6701ZM87.4956 28.4324C87.5992 28.4724 87.7287 28.5057 87.8842 28.5324C88.0397 28.5458 88.2016 28.5524 88.37 28.5524C88.953 28.5524 89.4065 28.3724 89.7304 28.0123C90.0542 27.6389 90.2162 27.0054 90.2162 26.1119C90.2162 25.6585 90.1708 25.2851 90.0802 24.9917C89.9895 24.6983 89.8664 24.4649 89.7109 24.2916C89.5555 24.1182 89.3611 24.0049 89.1279 23.9515C88.9077 23.8848 88.6615 23.8515 88.3895 23.8515C88.2599 23.8515 88.098 23.8715 87.9036 23.9115C87.7093 23.9515 87.5733 23.9915 87.4956 24.0315V28.4324ZM99.8155 23.5514L96.8033 16.6701H99.7572L101.331 20.6709L101.7 22.1912L102.05 20.6709L103.702 16.6701H106.345L103.236 23.4114L106.5 30.6728H103.644L101.817 26.372L101.409 24.8117L101.02 26.372L99.1936 30.6728H96.4924L99.8155 23.5514ZM116.228 23.2114L116.423 21.231H116.326L115.587 23.3514L111.72 30.6728H109.796V16.6701H112.245V23.9915L112.031 26.0319H112.128L112.905 23.8515L116.773 16.6701H118.677V30.6728H116.228V23.2114ZM125.806 24.7517H122.095V30.6728H119.646V16.6701H122.095V22.4312H125.806V16.6701H128.255V30.6728H125.806V24.7517ZM135.662 23.2114L135.857 21.231H135.76L135.021 23.3514L131.154 30.6728H129.23V16.6701H131.679V23.9915L131.465 26.0319H131.562L132.339 23.8515L136.207 16.6701H138.111V30.6728H135.662V23.2114ZM148.895 33.1733H147.166L146.913 30.6728H139.081V16.6701H141.53V28.3524H145.028V16.6701H147.477V28.3524H148.895V33.1733ZM155.686 23.2114L155.881 21.231H155.784L155.045 23.3514L151.178 30.6728H149.254V16.6701H151.703V23.9915L151.489 26.0319H151.586L152.363 23.8515L156.23 16.6701H158.135V30.6728H155.686V23.2114ZM164.604 27.5122H161.397L160.6 30.6728H158.171L162.116 16.57H164.04L168.004 30.6728H165.439L164.604 27.5122ZM161.922 25.4318H164.176L163.399 22.1712L163.088 19.9707H163.01L162.68 22.1912L161.922 25.4318ZM174.952 18.9905H171.726V30.6728H169.278V18.9905H166.052V16.6701H174.952V18.9905ZM181.631 23.2114L181.825 21.231H181.728L180.99 23.3514L177.122 30.6728H175.198V16.6701H177.647V23.9915L177.433 26.0319H177.53L178.308 23.8515L182.175 16.6701H184.079V30.6728H181.631V23.2114ZM192.822 19.9107C192.822 20.2574 192.783 20.6042 192.705 20.9509C192.64 21.2843 192.53 21.6044 192.375 21.9111C192.219 22.2045 192.012 22.4645 191.753 22.6913C191.507 22.918 191.209 23.0913 190.859 23.2114V23.3314C191.17 23.4114 191.461 23.5314 191.733 23.6915C192.018 23.8515 192.265 24.0715 192.472 24.3516C192.679 24.6183 192.841 24.9517 192.958 25.3518C193.087 25.7385 193.152 26.1986 193.152 26.7321C193.152 27.4522 193.029 28.079 192.783 28.6124C192.55 29.1325 192.226 29.5593 191.811 29.8927C191.41 30.2261 190.937 30.4728 190.393 30.6328C189.848 30.7929 189.272 30.8729 188.663 30.8729C188.482 30.8729 188.248 30.8729 187.963 30.8729C187.678 30.8729 187.367 30.8595 187.031 30.8329C186.707 30.8195 186.37 30.7929 186.02 30.7529C185.67 30.7128 185.346 30.6528 185.048 30.5728V16.7701C185.476 16.6901 186.001 16.6234 186.622 16.57C187.257 16.5034 187.886 16.47 188.508 16.47C189.078 16.47 189.622 16.5167 190.14 16.61C190.671 16.7034 191.131 16.8768 191.52 17.1301C191.921 17.3835 192.239 17.7369 192.472 18.1904C192.705 18.6304 192.822 19.2039 192.822 19.9107ZM188.721 28.6924C189.265 28.6924 189.712 28.5124 190.062 28.1523C190.412 27.7923 190.587 27.2655 190.587 26.572C190.587 26.1319 190.529 25.7852 190.412 25.5318C190.295 25.2651 190.14 25.0651 189.946 24.9317C189.751 24.785 189.524 24.6917 189.265 24.6516C189.019 24.6116 188.76 24.5916 188.488 24.5916H187.497V28.5724C187.601 28.6124 187.776 28.6458 188.022 28.6724C188.281 28.6858 188.514 28.6924 188.721 28.6924ZM188.061 22.6112C188.203 22.6112 188.365 22.6046 188.546 22.5912C188.741 22.5646 188.896 22.5379 189.013 22.5112C189.388 22.3645 189.706 22.1245 189.965 21.7911C190.237 21.4577 190.373 21.0243 190.373 20.4908C190.373 20.1441 190.328 19.8507 190.237 19.6106C190.146 19.3706 190.023 19.1839 189.868 19.0505C189.712 18.9038 189.524 18.8038 189.304 18.7505C189.097 18.6838 188.87 18.6505 188.624 18.6505C188.093 18.6505 187.717 18.6771 187.497 18.7305V22.6112H188.061Z" fill="black"/>
</g>
<defs>
<clipPath id="clip0_1110_45">
<rect width="193.333" height="32" fill="white"/>
</clipPath>
</defs>
</svg>
