<svg width="175" height="27" viewBox="0 0 175 27" fill="none" xmlns="http://www.w3.org/2000/svg">
<path d="M0.30302 24.5V1.22727H12.7121V1.95454H1.03029V12.5H12.0303V13.2273H1.03029V23.7727H13.0303V24.5H0.30302ZM36.2178 17.2273H37.1269L40.8996 22.2273L41.036 22.4091L44.2632 26.6818H43.3542L40.3996 22.7727L40.2632 22.5909L36.2178 17.2273ZM44.9451 12.8636C44.9451 15.2348 44.5398 17.3182 43.7292 19.1136C42.9186 20.9091 41.7898 22.3106 40.3428 23.3182C38.8958 24.3182 37.2178 24.8182 35.3087 24.8182C33.392 24.8182 31.7102 24.3144 30.2632 23.3068C28.8163 22.2992 27.6875 20.8977 26.8769 19.1023C26.0739 17.3068 25.6723 15.2273 25.6723 12.8636C25.6723 10.4924 26.0776 8.41288 26.8882 6.625C27.6989 4.82955 28.8276 3.42803 30.2746 2.42045C31.7216 1.41288 33.3996 0.90909 35.3087 0.90909C37.2178 0.90909 38.8958 1.41288 40.3428 2.42045C41.7898 3.42045 42.9186 4.81818 43.7292 6.61364C44.5398 8.40909 44.9451 10.4924 44.9451 12.8636ZM44.2178 12.8636C44.2178 10.6364 43.8428 8.68182 43.0928 7C42.3428 5.31061 41.2973 3.99621 39.9564 3.05682C38.6231 2.10985 37.0739 1.63636 35.3087 1.63636C33.5511 1.63636 32.0019 2.10606 30.661 3.04545C29.3276 3.97727 28.2822 5.28788 27.5246 6.97727C26.7746 8.65909 26.3996 10.6212 26.3996 12.8636C26.3996 15.0758 26.7708 17.0265 27.5132 18.7159C28.2557 20.3977 29.2936 21.7159 30.6269 22.6705C31.9678 23.6174 33.5284 24.0909 35.3087 24.0909C37.0739 24.0909 38.6269 23.6212 39.9678 22.6818C41.3087 21.7348 42.3542 20.4205 43.1042 18.7386C43.8542 17.0492 44.2254 15.0909 44.2178 12.8636ZM74.8968 1.22727H75.624V16.6364C75.624 18.2121 75.2566 19.6212 74.5218 20.8636C73.7945 22.0985 72.8021 23.0758 71.5445 23.7955C70.2869 24.5076 68.8589 24.8636 67.2604 24.8636C65.6771 24.8636 64.2528 24.5038 62.9877 23.7841C61.7225 23.0644 60.7225 22.0871 59.9877 20.8523C59.2528 19.6098 58.8892 18.2045 58.8968 16.6364V1.22727H59.624V16.6364C59.624 18.0758 59.9536 19.3598 60.6127 20.4886C61.2793 21.6174 62.1884 22.5076 63.34 23.1591C64.4915 23.8106 65.7983 24.1364 67.2604 24.1364C68.7225 24.1364 70.0293 23.8106 71.1809 23.1591C72.3324 22.5076 73.2377 21.6174 73.8968 20.4886C74.5634 19.3598 74.8968 18.0758 74.8968 16.6364V1.22727ZM91.624 1.22727V24.5H90.8968V1.22727H91.624ZM105.26 1.22727L112.579 12.1818H112.669L119.988 1.22727H120.897L113.079 12.8636L120.897 24.5H119.988L112.669 13.5455H112.579L105.26 24.5H104.351L112.169 12.8636L104.351 1.22727H105.26ZM132.934 24.5V23.9091L140.388 15.0909C141.555 13.7121 142.464 12.5606 143.116 11.6364C143.767 10.7045 144.225 9.87879 144.491 9.15909C144.756 8.43182 144.888 7.68182 144.888 6.90909C144.888 5.89394 144.653 4.98864 144.184 4.19318C143.722 3.39773 143.085 2.77273 142.275 2.31818C141.472 1.86364 140.555 1.63636 139.525 1.63636C138.449 1.63636 137.502 1.88257 136.684 2.375C135.866 2.85985 135.225 3.51136 134.763 4.32954C134.301 5.14773 134.07 6.05303 134.07 7.04545H133.343C133.343 5.91667 133.604 4.89015 134.127 3.96591C134.657 3.03409 135.384 2.29167 136.309 1.73864C137.241 1.18561 138.312 0.90909 139.525 0.90909C140.691 0.90909 141.733 1.17045 142.65 1.69318C143.566 2.20833 144.29 2.92045 144.82 3.82954C145.35 4.73106 145.616 5.75758 145.616 6.90909C145.616 7.76515 145.472 8.58333 145.184 9.36364C144.903 10.1439 144.422 11.0152 143.741 11.9773C143.066 12.9394 142.131 14.1288 140.934 15.5455L134.07 23.6818V23.7727H146.979V24.5H132.934ZM159.718 19.0455V18.5L170.4 1.22727H170.854V2.72727H170.309L160.763 18.2273V18.3182H174.036V19.0455H159.718ZM170.4 24.5V18.8182V18.5909V1.22727H171.127V24.5H170.4Z" fill="#FF8000"/>
</svg>
