<svg width="195" height="65" viewBox="0 0 195 65" fill="none" xmlns="http://www.w3.org/2000/svg">
<path d="M34.2258 33.8634L34.7864 42.4593H34.2258C33.7773 41.3007 33.2167 40.2543 32.5439 39.3947C31.8338 38.4977 31.049 37.7503 30.1147 37.1149C29.1803 36.4796 28.2086 36.0311 27.1248 35.6947C26.0409 35.3957 24.8824 35.2462 23.6864 35.2462C22.2662 35.2462 20.8834 35.5078 19.5379 36.0684C18.1925 36.629 17.0339 37.4513 15.9874 38.5351C14.941 39.6189 14.1188 40.9644 13.5208 42.6088C12.9228 44.2159 12.6238 46.0472 12.6238 48.0654C12.6238 50.3078 12.9228 52.2512 13.5582 53.9704C14.1935 55.6896 15.0157 57.1098 16.0996 58.231C17.146 59.3522 18.3794 60.1744 19.6874 60.735C21.0329 61.2956 22.4157 61.5572 23.8733 61.5572C26.5268 61.5572 28.7692 60.8845 30.5258 59.5017V50.8684C30.5258 50.1209 30.3389 49.4482 29.9278 48.8502C29.5167 48.2522 28.5823 47.9532 27.0874 47.9532H26.7884V47.3926H38.8974V47.9532H38.5611C37.1409 47.9532 36.2066 48.2149 35.7581 48.7755C35.3096 49.3361 35.0853 50.0462 35.0853 50.8684V60.0623C33.8894 60.7724 32.6561 61.3704 31.348 61.8562C30.0399 62.3421 28.7692 62.7158 27.4985 62.94C26.2278 63.1643 24.9945 63.3138 23.7611 63.3138C21.8925 63.3138 19.9864 63.0522 18.1177 62.5289C16.2491 62.0057 14.4925 61.1835 12.8854 60.0249C11.2784 58.9037 10.0077 57.3714 8.99859 55.5027C8.02687 53.634 7.54102 51.429 7.54102 48.8876C7.54102 46.6452 7.95212 44.5896 8.77434 42.6836C9.59656 40.7775 10.7551 39.1705 12.2127 37.825C13.6703 36.4796 15.3895 35.4331 17.3329 34.723C19.2763 34.0129 21.4066 33.6392 23.649 33.6392C25.2561 33.6392 26.452 33.7513 27.2369 33.9755C28.0591 34.1998 28.9187 34.5361 29.853 34.9472C30.7874 35.3583 31.5349 35.5452 32.1328 35.5452C32.6187 35.5452 32.9924 35.3583 33.2167 34.9846C33.4409 34.6109 33.553 34.1998 33.5904 33.826H34.2258V33.8634Z" fill="#171717"/>
<path d="M63.8621 34.0501L64.1985 40.0298L63.6005 40.1046C63.1894 38.3854 62.5914 37.2642 61.8066 36.741C61.0217 36.2177 59.9379 35.9561 58.5551 35.9561H50.6319V46.7571H58.0318C58.6298 46.7571 59.153 46.6823 59.6015 46.4955C60.05 46.3086 60.4237 45.9349 60.7601 45.2995C61.0965 44.6642 61.246 43.7298 61.246 42.4965H61.7692V52.55H61.246C61.2086 51.4288 61.0217 50.5692 60.7227 49.9712C60.4238 49.3732 60.05 48.9995 59.6015 48.8126C59.153 48.6258 58.6298 48.5136 57.9945 48.5136H50.5945V60.8843H58.5551C60.6106 60.8843 62.1803 60.5106 63.3389 59.7257C64.4975 58.9409 65.3944 57.558 66.1045 55.5025L66.5904 55.652L64.5348 62.9025H41.9238V62.3419H42.5966C44.9137 62.3419 46.0349 61.3702 46.0349 59.4267V37.4884C46.0349 36.741 45.8481 36.0682 45.4369 35.4703C45.0258 34.8723 44.0915 34.5733 42.5966 34.5733H41.9238V34.0127H63.8621V34.0501Z" fill="#171717"/>
<path d="M68.6101 34.0503H93.1645L93.5009 40.5907H92.9776C92.9029 39.2826 92.4544 38.1988 91.6696 37.3392C90.8847 36.4422 89.5766 36.0311 87.7453 36.0311H83.1858V59.4643C83.1858 61.4078 84.3443 62.3795 86.6241 62.3795H87.3342V62.9401H74.4403V62.3795H75.1504C76.2716 62.3795 77.1312 62.1552 77.7292 61.7067C78.3272 61.2583 78.6262 60.5108 78.6262 59.4643V35.9937H74.0292C72.1979 35.9937 70.8899 36.4422 70.105 37.3018C69.3202 38.1614 68.9091 39.2452 68.7969 40.5533H68.2363L68.6101 34.0503Z" fill="#171717"/>
<path d="M106.619 34.0503H118.392V34.6109C117.457 34.6109 116.673 34.6856 116.075 34.8351C115.477 34.9846 115.178 35.321 115.178 35.8442C115.178 36.3675 115.327 36.9281 115.626 37.6008L123.512 55.9138L130.576 38.124C130.837 37.526 130.949 36.9281 130.949 36.2553C130.949 35.6574 130.725 35.2462 130.277 34.9846C129.828 34.723 129.118 34.6109 128.109 34.6109L128.146 34.0503H136.369V34.6109C135.359 34.6483 134.537 35.022 133.939 35.8068C133.341 36.5917 132.818 37.5634 132.37 38.7594L122.652 63.2764H122.129L111.366 38.722C110.693 37.1523 110.058 36.0685 109.422 35.4705C108.824 34.8725 107.852 34.5735 106.619 34.5735V34.0503Z" fill="#171717"/>
<path d="M137.004 34.0503H149.935V34.5735H149.225C147.842 34.5735 146.945 34.8725 146.459 35.3957C145.974 35.919 145.712 36.6291 145.712 37.4887V59.4269C145.712 60.3239 145.974 61.034 146.459 61.5572C146.945 62.0805 147.88 62.3421 149.225 62.3421H149.935V62.9027H137.004V62.3421H137.677C139.994 62.3421 141.115 61.3704 141.115 59.4269V37.4887C141.115 36.7412 140.928 36.0685 140.517 35.4705C140.106 34.8725 139.172 34.5735 137.677 34.5735H137.004V34.0503Z" fill="#171717"/>
<path d="M153.186 34.0503H164.735C167.724 34.0503 170.341 34.5361 172.658 35.5452C174.975 36.5543 176.133 38.6099 176.133 41.7492C176.133 43.2068 175.76 44.5523 175.012 45.823C174.265 47.0937 173.181 48.1401 171.686 48.925C170.228 49.7098 168.434 50.0836 166.379 50.0836C165.445 50.0836 163.912 49.8219 161.857 49.2613V59.4269C161.857 60.2492 162.081 60.9219 162.529 61.4825C162.978 62.0431 163.912 62.3047 165.332 62.3047H166.043V62.8653H153.149V62.3047H153.821C154.943 62.3047 155.802 62.0805 156.4 61.632C156.998 61.1835 157.26 60.436 157.26 59.3896V37.4887C157.26 36.4422 156.961 35.6947 156.4 35.2462C155.802 34.7978 154.943 34.5735 153.784 34.5735H153.111V34.0503H153.186ZM161.931 35.9563V47.7664C162.978 48.1401 164.137 48.327 165.332 48.327C167.052 48.327 168.472 47.8038 169.556 46.7199C170.64 45.6361 171.163 44.1412 171.163 42.2351C171.163 39.619 170.453 37.8998 169.032 37.0402C167.575 36.218 166.08 35.8068 164.51 35.8068C163.464 35.7695 162.604 35.8442 161.931 35.9563Z" fill="#171717"/>
<path d="M179.572 20.2592C182.002 20.7451 184.431 21.3057 186.823 21.941C188.019 22.2774 189.215 22.6138 190.411 22.9875C191.607 23.3612 192.765 23.7724 193.924 24.2582C192.803 23.735 191.607 23.3239 190.448 22.9128C189.29 22.5017 188.094 22.1279 186.898 21.7916C184.506 21.1188 182.076 20.5209 179.647 19.9976C177.218 19.4744 174.751 19.0259 172.285 18.6522C169.818 18.2784 167.351 17.9421 164.885 17.7178C159.914 17.1946 154.943 16.8209 149.973 16.5593C145.039 16.2976 140.106 16.0734 135.135 15.9613C132.743 14.3542 130.314 12.8219 127.847 11.3643C125.343 9.86938 122.802 8.48656 120.186 7.17849C117.57 5.87041 114.916 4.67446 112.188 3.66537C110.805 3.14214 109.422 2.69366 108.002 2.31992C106.582 1.94619 105.162 1.6472 103.667 1.46033C97.8737 0.824978 92.0435 0.675484 86.2506 0.712858C80.4203 0.787605 74.6274 1.01185 68.8345 1.53508C65.9193 1.79669 63.0416 2.09568 60.1638 2.54416C58.7062 2.73103 57.286 3.03002 55.8658 3.29163L53.7356 3.74012C53.0255 3.88961 52.3154 4.07648 51.6053 4.26335C48.8022 4.97345 45.9992 5.75829 43.1962 6.61788C40.4306 7.4401 37.6275 8.33707 34.8993 9.23403C32.1336 10.131 29.368 11.028 26.6397 11.9623C25.2569 12.4108 23.8741 12.8966 22.4912 13.3451C21.1084 13.7936 19.7256 14.2421 18.3428 14.5785C17.6327 14.7653 16.9226 14.7653 16.2125 14.8027H15.1286L14.0448 14.7653C12.5872 14.6906 11.167 14.5785 9.70948 14.429C6.83171 14.13 3.95394 13.7936 1.07618 13.3825C3.95394 13.831 6.83171 14.2795 9.70948 14.5785C11.167 14.7279 12.5872 14.8774 14.0448 14.9896L15.1286 15.0643L16.2125 15.1017C16.9226 15.1017 17.6701 15.1017 18.4175 14.9148C19.8377 14.5785 21.2205 14.1673 22.6034 13.7189C23.9862 13.3078 25.369 12.8593 26.7518 12.4108C29.5175 11.5138 32.2831 10.6169 35.0488 9.75726C37.8144 8.89767 40.5801 8.03808 43.3831 7.21586C46.1487 6.39364 48.9517 5.64617 51.7921 4.97345C52.5022 4.82395 53.2123 4.63708 53.9224 4.48759L56.0527 4.03911C57.4729 3.77749 58.8931 3.51588 60.3133 3.32901C63.1911 2.9179 66.0688 2.58154 68.9466 2.35729C74.7021 1.87144 80.495 1.6472 86.2879 1.60982C92.0808 1.60982 97.8737 1.75932 103.629 2.39467C105.049 2.54416 106.47 2.84315 107.852 3.21689C109.235 3.59062 110.618 4.03911 111.964 4.52496C114.654 5.49668 117.308 6.69263 119.887 7.96333C122.466 9.23403 125.007 10.6542 127.511 12.1118C130.015 13.5694 132.482 15.1017 134.836 16.7461L134.911 16.8209H135.023C139.994 16.933 144.964 17.0825 149.935 17.3067C154.906 17.531 159.877 17.8673 164.81 18.3532C167.276 18.5774 169.743 18.8764 172.21 19.2128C174.676 19.3996 177.143 19.8108 179.572 20.2592ZM21.1084 15.9239C23.7993 15.6249 26.5276 15.4007 29.2559 15.2512C31.9841 15.1391 34.7124 15.1391 37.4407 15.2138C40.1689 15.3259 42.8972 15.5128 45.5881 15.8118C48.279 16.1108 51.0073 16.4845 53.6608 16.9704C59.0426 17.8673 64.3496 19.0259 69.5819 20.4835C66.9284 19.9229 64.2749 19.3996 61.584 18.9512C58.9305 18.4653 56.2396 18.0168 53.5487 17.6431C50.8578 17.2694 48.1669 16.8956 45.476 16.634C44.1305 16.4845 42.7851 16.3724 41.4396 16.2603L39.4215 16.1481C38.7487 16.1108 38.076 16.1108 37.4033 16.0734C31.9841 15.8492 26.565 16.0734 21.1832 16.5593C15.8014 17.0451 10.4196 17.83 5.03778 18.6895C7.6913 18.0916 10.3448 17.6057 13.0357 17.1199C15.6892 16.634 18.3801 16.2229 21.1084 15.9239ZM61.9577 15.737C57.6224 14.3168 53.3244 12.7098 49.1012 11.0653L48.6901 10.9158L48.9891 10.5795C49.9608 9.64514 50.9699 8.78555 52.0537 7.96333C52.577 7.55222 53.1376 7.17849 53.7356 6.80475C54.2962 6.46839 54.9315 6.13203 55.5669 5.90778L55.8285 5.83304L56.0901 5.75829L56.5759 5.64617C56.9123 5.57142 57.2487 5.53405 57.585 5.4593C58.2578 5.34718 58.9305 5.27243 59.5658 5.19769C60.9113 5.04819 62.2194 4.97345 63.5648 4.8987C66.2183 4.7492 68.8718 4.63708 71.5254 4.52496C74.1789 4.41284 76.8324 4.33809 79.5233 4.26335L71.5627 4.7492C68.9092 4.8987 66.2557 5.08557 63.6022 5.27243C62.2941 5.38455 60.9487 5.49668 59.6406 5.64617C58.9679 5.72092 58.3325 5.83304 57.6598 5.90778C57.3234 5.94516 57.0244 6.01991 56.6881 6.09465L56.2022 6.20677L55.978 6.28152L55.7537 6.35627C55.1557 6.54314 54.5578 6.8795 54.0345 7.21586C53.4739 7.55222 52.9507 7.96333 52.4275 8.33707C51.5305 9.04717 50.6335 9.83201 49.8113 10.6169C51.7921 11.3643 53.7729 12.1118 55.7911 12.7845C57.9588 13.532 60.0891 14.2795 62.2567 14.9896C64.4244 15.6997 66.5921 16.335 68.7971 16.8956C69.3577 17.0077 69.8809 17.1572 70.4415 17.2694L71.2638 17.4188C71.5254 17.4562 71.8244 17.4936 72.086 17.531L72.4971 17.5683H72.9082L73.7678 17.6057C74.3284 17.6431 74.889 17.6431 75.487 17.6431C80.0465 17.7552 84.6061 17.7926 89.1657 17.8673L102.844 18.0916L116.523 18.3158L130.202 18.6148C134.761 18.7269 139.321 18.839 143.881 18.9885C148.44 19.1754 153 19.2875 157.559 19.6239C148.44 19.3249 139.321 19.2875 130.202 19.1754L116.523 19.0633L102.844 18.9138C93.7253 18.8017 84.6061 18.7643 75.487 18.5027C74.9264 18.4653 74.3658 18.4653 73.7678 18.4653L72.9082 18.4279L72.4597 18.3906L72.0112 18.3532C71.7122 18.3158 71.4132 18.2784 71.1516 18.2411L70.292 18.0916C69.7314 17.9794 69.1708 17.83 68.6102 17.7178C66.3304 17.1199 64.1254 16.4471 61.9577 15.737ZM76.3839 15.4754C76.795 15.4754 77.1688 15.5128 77.5799 15.5128C79.187 15.5502 80.8314 15.5875 82.4385 15.6249L92.193 15.8118L130.09 16.4845C127.212 14.7653 124.297 13.1209 121.344 11.5138C119.7 10.6169 118.055 9.75726 116.374 8.93504C114.692 8.11283 113.01 7.29061 111.291 6.58051C109.572 5.87041 107.815 5.19769 106.021 4.82395C104.19 4.48759 102.321 4.30072 100.49 4.11385C96.7525 3.77749 93.0152 3.66537 89.2778 3.66537C93.0152 3.55325 96.7525 3.59062 100.49 3.85224C102.359 4.00173 104.227 4.15123 106.096 4.45022C107.965 4.82395 109.721 5.4593 111.478 6.1694C113.234 6.8795 114.916 7.66434 116.598 8.44919C118.28 9.27141 119.962 10.0936 121.606 10.9906C124.932 12.7471 128.184 14.5785 131.398 16.5219L132.332 17.0825H131.211C124.708 17.0077 118.205 16.933 111.702 16.8209L92.193 16.4098C88.9415 16.335 85.69 16.2603 82.4385 16.1481C80.8314 16.1108 79.187 16.036 77.5799 15.9613C76.7577 15.9239 75.9728 15.8865 75.1506 15.8492C74.7395 15.8492 74.3284 15.8118 73.9173 15.7744L73.3193 15.737C73.1324 15.6997 72.9082 15.6623 72.7213 15.6249C71.1143 15.3259 69.5446 14.9522 67.9749 14.5411C66.4052 14.13 64.8355 13.6815 63.2658 13.233C61.6961 12.7845 60.1638 12.2987 58.5941 11.8128C57.8093 11.5886 57.0618 11.327 56.277 11.0653L55.1184 10.6542L54.5578 10.43C54.3709 10.3552 54.184 10.2805 53.9972 10.1684C54.1467 10.2805 54.3709 10.3179 54.5578 10.3926L55.1184 10.5795L56.277 10.9532L58.5941 11.6633C60.1638 12.1118 61.7335 12.5603 63.3032 12.9714C64.8729 13.3825 66.4426 13.7936 68.0123 14.2047C69.5819 14.5785 71.1516 14.9522 72.7587 15.2138C73.7678 15.3633 74.8142 15.4007 75.8607 15.438L74.3658 5.57142L76.3839 15.4754ZM39.7952 10.1684C41.3275 9.71989 42.8598 9.30878 44.3922 8.89767C45.9245 8.48656 47.4568 8.11283 49.0265 7.73909C47.5315 8.26232 45.9992 8.74818 44.5043 9.19666C42.972 9.68252 41.477 10.131 39.9447 10.5421C38.4124 10.9906 36.8801 11.4017 35.3478 11.8128C33.8154 12.2239 32.2831 12.5977 30.7134 12.9714C32.2084 12.4482 33.7407 11.9623 35.2356 11.5138C36.7306 11.0653 38.2629 10.6169 39.7952 10.1684ZM170.304 24.8562C171.986 24.9309 173.667 25.2299 175.237 25.7532C176.807 26.2764 178.339 27.0612 179.647 28.0703C178.227 27.2481 176.695 26.6127 175.125 26.1269C173.555 25.6784 171.948 25.4168 170.304 25.342C168.659 25.2673 167.052 25.4168 165.445 25.7532C163.838 26.0895 162.268 26.6127 160.773 27.3228C162.156 26.4259 163.726 25.7532 165.333 25.342C166.94 24.9683 168.622 24.7814 170.304 24.8562ZM29.7791 24.2956C30.975 24.1835 32.2084 24.1461 33.4043 24.1835C35.8336 24.2956 38.2255 24.7067 40.5427 25.4542C42.8225 26.2016 45.0275 27.3228 46.9709 28.743C44.9154 27.5097 42.7103 26.538 40.4306 25.8653C38.1508 25.1926 35.7962 24.8188 33.4043 24.7067C31.0124 24.6319 28.6579 24.8188 26.3033 25.3047C23.9862 25.7905 21.7064 26.6127 19.5387 27.6592C21.5943 26.3885 23.8367 25.4542 26.1912 24.8936C27.3498 24.6319 28.5458 24.4077 29.7791 24.2956ZM113.645 14.1673C115.066 14.5037 116.523 14.7279 118.018 14.8401C117.271 14.8401 116.523 14.8401 115.813 14.7653C115.066 14.7279 114.318 14.6158 113.608 14.5037C112.861 14.3916 112.15 14.2047 111.44 13.9431C110.73 13.6815 110.02 13.3825 109.422 12.8593L109.161 12.635L109.46 12.4482C110.394 11.8876 111.328 11.4391 112.337 11.0653C112.861 10.8785 113.384 10.7663 113.907 10.6542C114.43 10.5795 115.028 10.5421 115.551 10.6916C116.075 10.8411 116.598 10.9906 117.084 11.2148C117.57 11.4017 118.055 11.6259 118.541 11.8502C119.027 12.0744 119.513 12.2987 119.962 12.5229C120.447 12.7471 120.896 13.0088 121.382 13.233L119.887 12.6724L118.392 12.1118C117.42 11.7754 116.411 11.4017 115.439 11.1775C114.953 11.0653 114.468 11.1027 113.982 11.1775C113.496 11.2522 112.973 11.4017 112.487 11.5512C111.627 11.8502 110.805 12.2239 110.02 12.6724C110.506 13.0088 111.029 13.2704 111.59 13.4946C112.225 13.7936 112.935 14.0179 113.645 14.1673ZM104.115 24.8936C109.497 24.8562 114.841 24.8562 120.223 24.8188C125.605 24.8562 130.949 24.8562 136.331 24.8936L144.366 24.9683C147.057 25.0057 149.748 25.0431 152.402 25.1178C149.711 25.1926 147.02 25.1926 144.366 25.2673L136.331 25.342C130.949 25.3794 125.605 25.3794 120.223 25.4168C114.841 25.3794 109.497 25.3794 104.115 25.342L96.0798 25.2673C93.3889 25.2299 90.698 25.1926 88.0445 25.1178C90.7354 25.0431 93.4263 25.0431 96.0798 24.9683L104.115 24.8936Z" fill="#171717" stroke="#171717" stroke-miterlimit="10"/>
</svg>
