<svg width="128" height="33" viewBox="0 0 128 33" fill="none" xmlns="http://www.w3.org/2000/svg">
<path d="M0.545455 30V0.90909H16.0568V1.81818H1.45455V15H15.2045V15.9091H1.45455V29.0909H16.4545V30H0.545455ZM39.4389 20.9091H40.5753L45.2912 27.1591L45.4616 27.3864L49.4957 32.7273H48.3594L44.6662 27.8409L44.4957 27.6136L39.4389 20.9091ZM50.348 15.4545C50.348 18.4186 49.8414 21.0227 48.8281 23.267C47.8149 25.5114 46.4039 27.2633 44.5952 28.5227C42.7865 29.7727 40.6889 30.3977 38.3026 30.3977C35.9067 30.3977 33.8045 29.768 31.9957 28.5085C30.187 27.2491 28.776 25.4972 27.7628 23.2528C26.759 21.0085 26.2571 18.4091 26.2571 15.4545C26.2571 12.4905 26.7637 9.8911 27.777 7.65625C28.7902 5.41193 30.2012 3.66004 32.0099 2.40057C33.8187 1.1411 35.9162 0.511363 38.3026 0.511363C40.6889 0.511363 42.7865 1.1411 44.5952 2.40057C46.4039 3.65057 47.8149 5.39773 48.8281 7.64205C49.8414 9.88636 50.348 12.4905 50.348 15.4545ZM49.4389 15.4545C49.4389 12.6705 48.9702 10.2273 48.0327 8.125C47.0952 6.01326 45.7884 4.37026 44.1122 3.19602C42.4455 2.01231 40.509 1.42045 38.3026 1.42045C36.1056 1.42045 34.169 2.00757 32.4929 3.18182C30.8262 4.34659 29.5194 5.98485 28.5724 8.09659C27.6349 10.1989 27.1662 12.6515 27.1662 15.4545C27.1662 18.2197 27.6302 20.6581 28.5582 22.7699C29.4863 24.8722 30.7836 26.5199 32.4503 27.7131C34.1264 28.8968 36.0772 29.4886 38.3026 29.4886C40.509 29.4886 42.4503 28.9015 44.1264 27.7273C45.8026 26.5436 47.1094 24.9006 48.0469 22.7983C48.9844 20.6866 49.4484 18.2386 49.4389 15.4545ZM81.7876 0.90909H82.6967V20.1705C82.6967 22.1402 82.2375 23.9015 81.3189 25.4545C80.4098 26.9981 79.1693 28.2197 77.5973 29.1193C76.0253 30.0095 74.2403 30.4545 72.2422 30.4545C70.263 30.4545 68.4827 30.0047 66.9013 29.1051C65.3198 28.2055 64.0698 26.9839 63.1513 25.4403C62.2327 23.8873 61.7782 22.1307 61.7876 20.1705V0.90909H62.6967V20.1705C62.6967 21.9697 63.1087 23.5748 63.9325 24.9858C64.7659 26.3968 65.9022 27.5095 67.3416 28.3239C68.781 29.1383 70.4145 29.5455 72.2422 29.5455C74.0698 29.5455 75.7034 29.1383 77.1428 28.3239C78.5822 27.5095 79.7138 26.3968 80.5376 24.9858C81.371 23.5748 81.7876 21.9697 81.7876 20.1705V0.90909ZM96.6967 0.90909V30H95.7876V0.90909H96.6967ZM107.742 0.90909L116.89 14.6023H117.004L126.151 0.90909H127.288L117.515 15.4545L127.288 30H126.151L117.004 16.3068H116.89L107.742 30H106.606L116.379 15.4545L106.606 0.90909H107.742Z" fill="#5162FF"/>
</svg>
